<?xml version="1.0" encoding="UTF-8" standalone="no"?>
<svg
   width="117.88943mm"
   height="17.953634mm"
   viewBox="0 0 117.88943 17.953634"
   version="1.1"
   id="SVGRoot"
   xmlns="http://www.w3.org/2000/svg"
   xmlns:svg="http://www.w3.org/2000/svg">
  <defs
     id="defs26835">
    <rect
       x="3.0238094"
       y="27.970238"
       width="202.59525"
       height="90.714287"
       id="rect29087" />
  </defs>
  <g
     id="layer1"
     transform="translate(-42.091056,-57.419801)">
    <g
       aria-label="SAASitive"
       transform="translate(37.797619,33.261904)"
       id="text29085"
       style="font-size:10.5833px;line-height:125%;letter-spacing:0px;word-spacing:0px;white-space:pre;shape-inside:url(#rect29087);fill:#056674;stroke-width:0.264583px">
      <path
         d="m 14.021637,42.039497 c 2.5654,0 4.6482,-2.0828 4.6482,-4.6482 0,-2.5654 -2.0828,-4.6482 -4.6482,-4.6482 H 8.9924374 c -2.0574,0 -3.7337999,-1.5494 -3.9369999,-3.5306 H 18.669837 v -5.0292 H 8.9924374 c -2.5908,0 -4.6989999,2.0828 -4.6989999,4.6482 0,2.5654 2.1081999,4.6482 4.6989999,4.6482 h 5.0291996 c 2.0066,0 3.683,1.5494 3.8862,3.5052 H 4.2934375 v 5.0546 z m -8.9661995,-4.318 H 17.907837 c -0.1778,2.0066 -1.8542,3.556 -3.8862,3.556 H 5.0554375 Z m 3.9369999,-12.7762 h 8.9407996 v 3.5052 H 5.0554375 c 0.2032,-1.9558 1.8795999,-3.5052 3.9369999,-3.5052 z"
         style="font-size:25.4px;font-family:Geometrica;-inkscape-font-specification:'Geometrica, Normal'"
         id="path46645" />
      <path
         d="m 26.467598,33.098697 1.524,3.429 -2.4638,4.6736 h -3.0988 z m 4.572,-2.3368 -2.5908,4.9276 -1.5494,-3.429 2.9972,-5.9944 z m -2.0066,5.4102 2.286,-4.318 1.143,4.318 z m 3.6322,0.7366 1.3208,5.0292 h 0.762 l -4.6228,-17.78 -8.9154,17.78 h 4.7752 l 2.6416,-5.0292 z"
         style="font-size:25.4px;font-family:Geometrica;-inkscape-font-specification:'Geometrica, Normal'"
         id="path46647" />
      <path
         d="m 42.545782,33.098697 1.524,3.429 -2.4638,4.6736 h -3.0988 z m 4.572,-2.3368 -2.5908,4.9276 -1.5494,-3.429 2.9972,-5.9944 z m -2.0066,5.4102 2.286,-4.318 1.143,4.318 z m 3.6322,0.7366 1.3208,5.0292 h 0.762 l -4.6228,-17.78 -8.9154,17.78 h 4.7752 l 2.6416,-5.0292 z"
         style="font-size:25.4px;font-family:Geometrica;-inkscape-font-specification:'Geometrica, Normal'"
         id="path46649" />
      <path
         d="m 63.094368,42.039497 c 2.5654,0 4.6482,-2.0828 4.6482,-4.6482 0,-2.5654 -2.0828,-4.6482 -4.6482,-4.6482 h -5.0292 c -2.0574,0 -3.7338,-1.5494 -3.937,-3.5306 h 13.6144 v -5.0292 h -9.6774 c -2.5908,0 -4.699,2.0828 -4.699,4.6482 0,2.5654 2.1082,4.6482 4.699,4.6482 h 5.0292 c 2.0066,0 3.683,1.5494 3.8862,3.5052 h -13.6144 v 5.0546 z m -8.9662,-4.318 h 12.8524 c -0.1778,2.0066 -1.8542,3.556 -3.8862,3.556 h -8.9662 z m 3.937,-12.7762 h 8.9408 v 3.5052 h -12.8778 c 0.2032,-1.9558 1.8796,-3.5052 3.937,-3.5052 z"
         style="font-size:25.4px;font-family:Geometrica;-inkscape-font-specification:'Geometrica, Normal'"
         id="path46651" />
      <path
         d="m 73.854965,33.642088 h -2.864948 v -1.389066 h 4.562694 v 8.286163 h 2.884241 v 1.398712 h -7.765263 v -1.398712 h 3.183276 z m 0.588423,-5.450153 q 0.279743,0 0.5209,0.106109 0.241157,0.09646 0.41479,0.279742 0.18328,0.18328 0.279743,0.424437 0.106109,0.231511 0.106109,0.511253 0,0.270096 -0.106109,0.511254 -0.09646,0.241157 -0.279743,0.424436 -0.173633,0.18328 -0.41479,0.289389 -0.241157,0.09646 -0.5209,0.09646 -0.279742,0 -0.520899,-0.09646 -0.241158,-0.106109 -0.424437,-0.289389 -0.173633,-0.183279 -0.279743,-0.424436 -0.09646,-0.241158 -0.09646,-0.511254 0,-0.279742 0.09646,-0.511253 0.10611,-0.241157 0.279743,-0.424437 0.183279,-0.183279 0.424437,-0.279742 0.241157,-0.106109 0.520899,-0.106109 z"
         style="font-size:19.7556px;font-family:Consolas;-inkscape-font-specification:'Consolas, Normal'"
         id="path46653" />
      <path
         d="m 89.221506,41.802849 q -0.569131,0.144694 -1.176847,0.202572 -0.607716,0.06752 -1.234725,0.06752 -1.823148,0 -2.720253,-0.819935 -0.897105,-0.829581 -0.897105,-2.536974 v -5.054655 h -2.710607 v -1.408359 h 2.710607 V 29.590643 L 84.87103,29.15656 v 3.096458 h 4.350476 v 1.408359 H 84.87103 v 4.919607 q 0,1.041799 0.549839,1.562699 0.559484,0.511253 1.639869,0.511253 0.463022,0 1.01286,-0.06752 0.549838,-0.07717 1.147908,-0.231511 z"
         style="font-size:19.7556px;font-family:Consolas;-inkscape-font-specification:'Consolas, Normal'"
         id="path46655" />
      <path
         d="m 95.578407,33.642088 h -2.864948 v -1.389066 h 4.562695 v 8.286163 h 2.884236 v 1.398712 h -7.765259 v -1.398712 h 3.183276 z m 0.588423,-5.450153 q 0.279743,0 0.5209,0.106109 0.241157,0.09646 0.41479,0.279742 0.18328,0.18328 0.279743,0.424437 0.106109,0.231511 0.106109,0.511253 0,0.270096 -0.106109,0.511254 -0.09646,0.241157 -0.279743,0.424436 -0.173633,0.18328 -0.41479,0.289389 -0.241157,0.09646 -0.5209,0.09646 -0.279742,0 -0.520899,-0.09646 -0.241158,-0.106109 -0.424437,-0.289389 -0.173633,-0.183279 -0.279742,-0.424436 -0.09646,-0.241158 -0.09646,-0.511254 0,-0.279742 0.09646,-0.511253 0.106109,-0.241157 0.279742,-0.424437 0.183279,-0.183279 0.424437,-0.279742 0.241157,-0.106109 0.520899,-0.106109 z"
         style="font-size:19.7556px;font-family:Consolas;-inkscape-font-specification:'Consolas, Normal'"
         id="path46657" />
      <path
         d="m 102.23434,32.253022 h 1.90997 l 2.37298,6.405136 0.51126,1.562699 0.53054,-1.601284 2.3537,-6.366551 h 1.84244 l -3.80064,9.684875 h -1.92926 z"
         style="font-size:19.7556px;font-family:Consolas;-inkscape-font-specification:'Consolas, Normal'"
         id="path46659" />
      <path
         d="m 122.18287,36.584206 q 0,0.356913 -0.01,0.59807 -0.01,0.241157 -0.0289,0.453376 h -6.80064 q 0,1.485528 0.82958,2.28617 0.82958,0.790996 2.39228,0.790996 0.42444,0 0.84888,-0.02894 0.42443,-0.03858 0.81993,-0.09646 0.3955,-0.05788 0.75241,-0.125402 0.36656,-0.07717 0.67524,-0.163987 v 1.37942 q -0.68489,0.192926 -1.55305,0.308681 -0.85852,0.125402 -1.78456,0.125402 -1.24438,0 -2.14148,-0.33762 -0.89711,-0.33762 -1.47588,-0.974275 -0.56913,-0.646302 -0.84888,-1.572346 -0.27009,-0.93569 -0.27009,-2.112537 0,-1.022507 0.28939,-1.929258 0.29903,-0.916397 0.85852,-1.601284 0.56913,-0.694533 1.38906,-1.099677 0.81994,-0.405144 1.86174,-0.405144 1.01286,0 1.79421,0.318328 0.78134,0.318327 1.31189,0.906751 0.54019,0.578777 0.81029,1.418004 0.27974,0.829581 0.27974,1.861734 z m -1.74598,-0.241157 q 0.0289,-0.646301 -0.1254,-1.176847 -0.15434,-0.540192 -0.48231,-0.926044 -0.31833,-0.385852 -0.80065,-0.59807 -0.48231,-0.221865 -1.11897,-0.221865 -0.54983,0 -1.00321,0.212219 -0.45337,0.212218 -0.78135,0.59807 -0.32797,0.385851 -0.53054,0.926043 -0.20258,0.540193 -0.25081,1.186494 z"
         style="font-size:19.7556px;font-family:Consolas;-inkscape-font-specification:'Consolas, Normal'"
         id="path46661" />
    </g>
  </g>
</svg>
